<?xml version="1.0" standalone="no"?>
<!DOCTYPE svg PUBLIC "-//W3C//DTD SVG 20010904//EN"
 "http://www.w3.org/TR/2001/REC-SVG-20010904/DTD/svg10.dtd">
<svg version="1.0" xmlns="http://www.w3.org/2000/svg"
 width="600.000000pt" height="320.000000pt" viewBox="0 0 600.000000 320.000000"
 preserveAspectRatio="xMidYMid meet">
<g transform="translate(0.000000,320.000000) scale(0.100000,-0.100000)"
fill="#000000" stroke="none">
<path d="M2925 3171 c-52 -32 -68 -57 -73 -118 -3 -32 -11 -64 -19 -72 -20
-20 -10 -77 18 -107 16 -18 23 -40 27 -92 l4 -68 -68 -36 c-38 -20 -96 -43
-129 -53 -104 -29 -159 -112 -154 -228 1 -30 -7 -80 -18 -117 -11 -36 -24 -85
-28 -110 -4 -25 -20 -67 -35 -95 -30 -54 -55 -127 -65 -190 -3 -22 -18 -80
-32 -129 -23 -76 -32 -92 -66 -120 -49 -38 -119 -125 -111 -137 8 -14 36 -10
56 8 16 14 15 8 -7 -50 -14 -37 -25 -79 -25 -92 0 -29 24 -34 39 -7 9 14 10
10 8 -18 -1 -25 2 -35 15 -38 12 -2 20 6 27 30 9 31 9 32 10 6 1 -15 5 -29 10
-33 14 -8 41 35 42 70 l1 30 7 -29 c7 -35 27 -45 36 -17 9 31 25 118 34 196 8
73 16 89 121 257 29 48 54 104 65 145 9 38 26 95 37 128 11 33 20 73 20 88 1
45 21 13 48 -75 22 -73 23 -83 13 -210 -6 -73 -23 -198 -39 -278 -34 -178 -38
-371 -9 -485 26 -104 30 -268 10 -370 -16 -82 -16 -87 10 -267 19 -134 24
-202 20 -253 -7 -74 -14 -89 -64 -145 -17 -19 -31 -43 -31 -52 0 -22 30 -38
67 -37 l28 1 -31 7 c-66 16 -68 26 -15 84 21 23 43 52 50 64 15 30 7 246 -13
348 -18 92 -21 213 -5 269 10 35 12 37 26 23 16 -15 18 -28 47 -326 8 -79 19
-148 25 -154 13 -13 14 -6 2 25 -5 13 -14 100 -20 193 -14 192 -26 261 -49
274 -13 7 -16 26 -17 90 0 45 3 81 6 81 3 0 14 -9 24 -20 23 -25 79 -44 110
-36 14 4 31 19 39 34 21 38 20 22 -8 -92 -17 -71 -21 -107 -15 -123 14 -38 11
-114 -10 -205 -35 -158 -43 -217 -36 -266 4 -26 8 -73 9 -105 1 -48 -3 -62
-21 -79 -13 -12 -23 -28 -23 -36 0 -9 -7 -24 -17 -34 -10 -11 -12 -18 -4 -18
6 0 19 17 29 38 9 20 24 43 34 49 13 10 16 28 14 96 -1 46 -6 88 -9 94 -8 13
16 176 39 273 12 48 15 90 11 157 -5 67 -2 105 8 140 8 26 22 104 30 173 9 69
22 152 30 185 8 33 18 102 21 153 4 50 10 92 14 92 4 0 10 -39 14 -87 3 -49
13 -115 21 -148 8 -33 21 -116 30 -185 8 -69 21 -148 30 -175 11 -37 13 -74 9
-140 -5 -71 -2 -110 14 -185 30 -138 45 -238 37 -250 -4 -6 -8 -48 -9 -93 -2
-74 0 -83 21 -103 13 -12 23 -28 23 -36 0 -8 8 -22 18 -31 26 -24 36 -21 12 3
-11 11 -20 29 -20 40 0 10 -9 24 -21 30 -20 11 -20 17 -15 128 5 116 -3 194
-38 342 -17 71 -20 119 -9 170 l6 33 23 -44 c21 -40 23 -59 25 -199 l2 -155 9
95 c12 124 4 201 -28 269 -84 181 -88 347 -14 591 44 147 58 207 69 309 8 74
15 99 32 117 13 14 17 24 10 24 -7 0 -9 5 -5 11 12 20 21 -11 49 -181 39 -234
35 -415 -12 -563 -30 -95 -153 -139 -183 -65 -7 18 -9 19 -9 6 -1 -24 34 -58
59 -58 33 0 93 29 112 53 17 21 17 19 17 -66 0 -65 -4 -90 -14 -93 -24 -10
-36 -66 -51 -254 -8 -102 -19 -200 -24 -219 -12 -45 -5 -52 8 -9 10 33 25 162
37 328 4 47 13 100 21 119 42 101 58 -109 25 -318 -23 -142 -24 -268 -1 -312
7 -13 29 -41 48 -62 30 -31 35 -41 26 -55 -6 -9 -24 -20 -40 -23 -24 -6 -25
-7 -6 -8 65 -3 81 47 31 95 -17 16 -38 42 -46 58 -21 41 -20 196 2 316 22 117
24 236 7 315 -18 78 -11 218 16 360 29 150 27 234 -9 437 -17 95 -35 234 -41
308 -11 134 -11 136 15 215 28 82 54 134 43 86 -3 -14 3 -44 14 -67 10 -24 24
-69 30 -101 6 -32 19 -78 28 -103 16 -45 27 -64 121 -219 42 -70 51 -92 51
-131 0 -26 7 -69 15 -96 8 -27 15 -62 15 -79 1 -62 39 -73 41 -12 1 29 2 27
11 -13 16 -72 47 -92 49 -32 1 26 1 26 11 -5 8 -23 17 -33 31 -33 17 0 19 5
14 43 -4 34 -3 38 6 20 10 -23 31 -30 41 -14 3 5 -6 41 -19 82 -30 87 -30 82
-6 69 28 -14 51 -12 51 5 0 8 -35 50 -78 93 -74 75 -81 85 -105 163 -14 46
-29 104 -32 129 -9 60 -27 114 -63 186 -17 32 -33 79 -37 103 -4 25 -16 69
-26 100 -11 30 -19 81 -19 116 0 127 -52 204 -156 231 -61 17 -147 56 -176 82
-28 24 -23 87 12 157 31 62 38 99 20 110 -5 3 -10 25 -10 48 -1 65 -31 122
-79 146 -50 26 -116 27 -156 2z m161 -17 c37 -25 54 -66 54 -129 0 -42 3 -55
15 -55 25 0 12 -65 -20 -96 -8 -9 -15 -24 -15 -34 0 -11 -14 -35 -31 -54 -32
-37 -80 -53 -118 -41 -39 12 -80 55 -87 91 -4 20 -12 38 -20 41 -7 2 -18 21
-25 41 -10 29 -9 37 3 46 10 7 17 34 20 72 5 70 27 106 78 129 42 18 109 13
146 -11z m-142 -485 c29 -97 30 -103 16 -94 -5 3 -34 10 -64 15 -76 12 -136
29 -136 39 0 4 19 16 41 27 70 31 89 51 89 92 0 31 2 34 14 22 7 -8 25 -54 40
-101z m226 4 c30 -18 61 -37 68 -43 7 -6 16 -8 21 -5 5 3 12 1 16 -5 3 -5 2
-10 -4 -10 -5 0 -17 -3 -27 -7 -11 -4 -15 -2 -11 4 4 6 -5 10 -22 9 -16 -1
-27 -4 -25 -8 2 -3 -22 -10 -53 -14 -32 -3 -68 -10 -80 -15 -13 -5 -23 -5 -23
-1 0 11 44 137 61 177 l13 30 5 -40 c5 -36 12 -43 61 -72z m-135 61 c19 8 35
13 35 11 0 -22 -62 -180 -70 -180 -8 0 -68 157 -70 182 0 1 16 -5 35 -13 31
-12 39 -12 70 0z m-161 -150 c44 -8 90 -21 103 -29 21 -14 26 -14 47 0 14 9
55 21 92 26 37 5 77 12 90 15 18 5 23 3 19 -7 -4 -9 -26 -15 -68 -17 -114 -4
-131 -23 -143 -153 -13 -131 14 -171 119 -185 36 -5 45 -10 37 -19 -6 -8 -10
-78 -9 -181 1 -100 -3 -189 -10 -217 -17 -73 9 -108 55 -71 19 15 19 16 -1 9
-38 -12 -40 -10 -37 40 1 28 2 129 2 226 0 163 1 177 20 197 24 25 40 28 60
10 12 -11 12 -10 2 3 -10 13 -9 19 4 30 10 8 25 28 36 44 l18 30 0 -51 c0 -32
-14 -98 -37 -170 -35 -114 -36 -120 -25 -186 16 -91 15 -123 -3 -138 -8 -7
-13 -16 -10 -20 2 -4 -10 -20 -26 -36 -29 -27 -109 -136 -109 -148 0 -16 -65
-108 -82 -117 -31 -17 -58 9 -112 106 -27 49 -67 108 -89 132 -41 44 -42 53
-6 31 17 -11 22 -10 35 6 16 22 19 56 4 56 -5 0 -7 -6 -4 -13 2 -7 -1 -21 -9
-30 -12 -17 -15 -17 -50 8 -21 14 -36 21 -32 15 3 -5 2 -10 -2 -10 -10 0 -9
75 1 170 7 58 4 76 -25 165 -30 92 -33 110 -32 220 0 124 4 174 13 172 3 -1
19 13 37 31 29 30 36 32 101 32 99 0 111 -12 125 -121 14 -117 6 -152 -41
-175 -22 -11 -61 -18 -96 -18 -57 -1 -59 0 -97 43 -22 24 -39 38 -39 31 0 -16
58 -71 98 -92 l33 -17 -4 -190 c-1 -104 0 -188 4 -185 4 2 9 -1 12 -8 2 -7 2
-2 -1 12 -5 27 -5 115 -1 255 1 51 4 71 6 46 4 -40 6 -43 29 -38 l24 4 -26
-24 c-16 -14 -24 -32 -22 -46 3 -19 10 -22 61 -25 35 -2 64 2 73 9 11 9 17 9
29 -1 13 -10 12 -14 -2 -28 -12 -12 -18 -13 -21 -4 -5 15 -95 16 -123 2 -22
-13 -24 -44 -5 -82 9 -18 11 -29 4 -36 -15 -15 23 -190 63 -292 32 -80 36 -85
66 -88 28 -3 34 1 51 35 50 97 103 323 83 347 -8 10 -8 15 -1 18 6 2 13 20 17
41 4 28 1 42 -12 57 -16 18 -16 20 -2 20 27 0 21 48 -10 76 l-28 26 28 -7 c26
-7 27 -6 27 35 0 23 -4 50 -10 60 -11 20 -103 55 -120 45 -21 -13 -9 -20 34
-20 59 -1 86 -25 86 -77 0 -21 -2 -38 -4 -38 -2 0 -28 11 -59 24 -45 21 -57
31 -67 60 -18 54 -31 61 -90 41 -27 -9 -54 -24 -59 -33 -9 -16 -11 -15 -25 3
-14 19 -12 20 38 30 66 13 104 37 112 71 9 37 -2 185 -17 217 -15 33 -48 46
-124 49 -41 2 -65 9 -77 21 -10 9 -25 17 -34 17 -8 0 -12 4 -9 10 4 6 18 4 37
-6 17 -9 67 -22 112 -30z m-132 10 c31 -16 31 -17 12 -31 -10 -8 -18 -19 -16
-24 1 -6 -2 -8 -8 -4 -13 8 -52 -56 -44 -75 3 -8 2 -11 -2 -7 -4 3 -14 -8 -23
-26 -9 -17 -22 -31 -30 -29 -7 1 -10 -2 -6 -7 3 -6 -11 -21 -32 -36 l-38 -25
-7 22 c-25 88 14 195 86 239 38 23 67 24 108 3z m647 -19 c24 -22 46 -54 55
-82 17 -50 22 -148 7 -157 -10 -7 -77 42 -73 55 1 5 -3 8 -10 7 -7 -2 -20 12
-29 29 -9 18 -20 29 -24 25 -4 -4 -4 3 -1 15 6 18 -2 32 -39 68 l-45 46 32 14
c54 23 84 18 127 -20z m-151 -31 c12 -8 22 -12 22 -8 0 3 6 1 14 -6 8 -6 12
-18 9 -26 -3 -7 1 -16 9 -19 19 -8 22 -105 5 -148 -19 -45 -64 -86 -104 -93
-44 -8 -127 13 -150 38 -14 16 -18 36 -17 102 1 96 18 154 48 166 37 15 139
12 164 -6z m-558 -139 c0 -19 -5 -25 -22 -26 l-23 0 24 -10 c22 -9 23 -12 17
-87 -3 -42 -7 -87 -7 -99 -1 -13 -5 -21 -9 -18 -4 3 -13 -9 -20 -25 -14 -33
-64 -80 -85 -80 -7 0 -15 10 -19 23 -19 70 11 180 66 242 22 25 36 45 32 45
-4 0 2 9 14 20 12 12 22 25 22 30 0 6 2 10 5 10 3 0 5 -11 5 -25z m668 -6 l23
-26 -25 4 c-20 4 -26 11 -26 31 0 14 1 23 3 21 1 -2 12 -16 25 -30z m26 -44
c10 -8 22 -12 26 -10 4 3 13 -2 20 -10 7 -8 19 -15 26 -15 17 0 30 -31 50
-120 14 -59 14 -69 -2 -118 -27 -86 -15 -145 55 -290 60 -121 60 -123 38 -131
-18 -7 -25 -3 -41 23 -10 17 -33 54 -51 82 -45 69 -80 141 -95 191 -11 36 -11
46 4 68 9 14 23 25 31 25 19 0 19 -3 -5 -42 -11 -18 -19 -42 -19 -53 l1 -20 7
20 c3 11 19 43 34 72 20 38 27 67 27 106 0 64 -22 143 -51 177 -23 28 -22 25
11 -45 25 -54 38 -170 21 -194 -16 -25 -57 2 -91 61 -17 29 -28 42 -24 28 3
-14 3 -22 -1 -17 -9 7 -11 25 -21 135 -8 91 5 111 50 77z m-793 -31 c-32 -41
-61 -130 -61 -187 0 -41 8 -70 35 -124 19 -39 35 -80 35 -90 0 -11 -23 -58
-52 -104 -28 -46 -62 -103 -75 -126 -22 -39 -26 -41 -48 -31 l-24 11 52 101
c77 148 91 210 66 299 -16 58 -20 39 -7 -26 16 -73 5 -115 -68 -266 -37 -78
-58 -111 -65 -104 -7 7 -3 27 11 62 11 28 20 57 19 64 0 7 -7 -6 -15 -27 -8
-22 -17 -42 -21 -45 -3 -3 -3 3 1 14 4 11 18 70 32 130 14 65 38 139 59 180
19 39 41 102 49 140 19 92 32 125 50 125 7 0 19 7 26 15 21 26 22 16 1 -11z
m407 -132 c-2 -16 -15 -31 -38 -44 -19 -10 -34 -22 -33 -26 1 -4 -12 -8 -28
-9 -27 -2 -29 0 -29 31 0 42 25 72 70 84 42 11 62 -1 58 -36z m22 -31 c0 -5
21 -18 48 -30 26 -12 36 -19 22 -16 -63 16 -70 17 -70 6 0 -7 4 -10 10 -6 11
7 78 -20 102 -42 10 -9 18 -24 18 -35 0 -15 -8 -18 -55 -18 -40 0 -57 4 -61
15 -4 8 -11 12 -16 9 -6 -4 -7 2 -3 16 4 13 2 33 -6 47 -10 19 -18 23 -43 18
l-31 -5 33 17 c17 9 32 20 32 25 0 4 5 8 10 8 6 0 10 -4 10 -9z m-370 -62
c-11 -24 -20 -53 -20 -64 0 -19 -1 -18 -15 2 -14 20 -13 24 10 48 13 15 27 36
31 47 3 11 8 18 10 15 2 -2 -5 -24 -16 -48z m763 -61 c-15 -17 -17 -14 -34 35
-10 28 -18 54 -19 56 0 2 15 -13 34 -35 31 -36 33 -40 19 -56z m-418 31 l0
-44 -54 -3 c-62 -4 -78 6 -61 38 12 22 86 62 105 56 6 -1 10 -23 10 -47z m563
-16 c28 -56 34 -75 66 -215 19 -80 19 -95 1 -48 -7 19 -14 27 -14 18 -1 -10 8
-40 19 -68 22 -55 24 -70 12 -70 -13 0 -103 190 -96 202 4 7 2 8 -4 4 -11 -7
-42 78 -42 115 0 24 21 119 26 119 2 0 17 -26 32 -57z m-950 -28 c15 -32 15
-62 2 -70 -5 -3 -10 1 -10 11 0 9 -9 32 -21 50 -20 33 -20 34 -1 34 10 0 24
-11 30 -25z m500 -22 c-10 -2 -28 -2 -40 0 -13 2 -5 4 17 4 22 1 32 -1 23 -4z
m-113 -43 c11 -52 -1 -70 -48 -70 -50 0 -62 7 -70 39 -11 43 8 61 63 61 46 0
49 -2 55 -30z m144 16 c13 -16 5 -67 -13 -78 -21 -14 -94 -9 -99 7 -4 11 -4
10 -3 -2 1 -11 13 -20 31 -24 30 -7 30 -7 3 -8 -15 0 -30 -6 -33 -11 -4 -6
-11 -7 -17 -4 -6 4 -25 11 -42 15 l-31 7 32 1 c29 1 33 5 44 44 6 23 13 48 15
55 5 17 98 16 113 -2z m-174 -120 c40 -10 51 -9 109 3 28 6 54 7 58 3 12 -12
-24 -173 -59 -267 -48 -126 -75 -128 -122 -6 -28 74 -48 147 -65 239 -5 28 -2
34 17 41 12 5 24 5 27 1 3 -4 19 -10 35 -14z m-191 -115 c12 -13 21 -48 27
-103 12 -111 26 -174 61 -288 39 -125 58 -227 58 -306 0 -56 -4 -68 -25 -90
-19 -19 -31 -23 -52 -18 -44 11 -82 33 -97 57 -57 90 -69 390 -26 630 14 75
28 137 31 137 3 0 14 -9 23 -19z m890 -41 c5 -17 4 -20 -2 -10 -5 8 -13 26
-16 40 -5 17 -4 20 2 10 5 -8 13 -26 16 -40z m-1303 -7 c-12 -20 -14 -14 -5
12 4 9 9 14 11 11 3 -2 0 -13 -6 -23z m545 -125 c30 -53 59 -98 66 -100 14 -5
11 -159 -4 -233 -32 -156 -36 -170 -37 -138 -2 50 -29 169 -62 272 -16 52 -37
140 -44 195 -8 56 -17 115 -20 131 l-5 30 26 -30 c13 -16 49 -74 80 -127z
m298 42 c-15 -111 -21 -140 -65 -280 -16 -52 -36 -135 -43 -185 -8 -49 -15
-76 -15 -60 -1 17 -8 62 -17 100 -21 94 -33 273 -18 279 6 2 37 49 68 103 47
79 92 143 101 143 1 0 -4 -45 -11 -100z m-783 39 c19 -10 16 -94 -7 -173 -8
-27 -14 -65 -14 -83 0 -18 -4 -33 -10 -33 -5 0 -10 21 -10 46 0 59 -13 50 -29
-20 -16 -73 -36 -87 -27 -20 4 27 9 57 12 67 3 9 1 17 -3 17 -5 0 -19 -31 -32
-70 -12 -38 -26 -70 -31 -70 -11 0 -3 47 17 104 15 45 16 56 5 56 -5 0 -21
-28 -36 -62 -40 -89 -44 -55 -7 49 18 47 29 88 26 91 -3 3 -19 -7 -35 -23 -16
-16 -33 -26 -36 -22 -8 7 30 55 94 118 48 47 75 53 123 28z m1271 -2 c13 -12
32 -29 43 -37 32 -24 98 -110 84 -110 -7 0 -26 12 -41 27 -36 35 -37 18 -2
-82 33 -95 25 -120 -11 -38 -29 66 -51 78 -32 18 5 -19 13 -33 16 -31 3 2 7
-16 8 -40 3 -65 -14 -54 -38 26 -22 73 -43 98 -28 33 11 -49 11 -96 0 -89 -4
3 -14 33 -21 66 -15 71 -30 78 -30 14 0 -27 -4 -43 -10 -39 -5 3 -10 23 -10
43 0 20 -7 58 -14 83 -8 26 -16 71 -17 100 -3 52 -3 53 31 65 47 17 46 17 72
-9z"/>
<path d="M2402 1845 c0 -16 2 -22 5 -12 2 9 2 23 0 30 -3 6 -5 -1 -5 -18z"/>
<path d="M3592 1850 c0 -14 2 -19 5 -12 2 6 2 18 0 25 -3 6 -5 1 -5 -13z"/>
<path d="M5355 1548 c-35 -31 -51 -102 -30 -134 27 -42 20 -71 -25 -94 -21
-11 -46 -20 -53 -20 -29 0 -66 -41 -72 -78 -18 -121 -29 -172 -45 -212 -10
-25 -22 -70 -26 -98 -4 -30 -17 -67 -30 -85 -13 -18 -31 -43 -40 -55 -13 -18
-14 -26 -5 -31 9 -6 9 -15 1 -35 -14 -39 -10 -46 16 -28 14 9 30 57 16 48 -16
-9 -7 54 10 71 10 9 24 13 37 8 18 -5 20 -12 16 -53 -4 -34 -3 -42 4 -27 5 11
10 33 10 49 1 16 19 61 41 101 22 40 45 97 50 126 14 73 27 82 35 25 8 -53 4
-110 -20 -248 -15 -89 -15 -106 0 -219 12 -96 13 -133 4 -178 -8 -41 -8 -78 0
-134 15 -110 14 -156 -4 -163 -26 -10 -16 -34 21 -51 53 -26 70 -11 66 58 -2
30 2 86 9 124 7 39 13 97 14 130 2 57 5 86 40 305 8 52 15 112 15 133 0 31 7
46 34 73 41 41 73 44 86 8 6 -14 15 -67 21 -118 10 -80 9 -107 -6 -191 -15
-87 -16 -107 -4 -168 10 -55 10 -84 1 -138 -17 -97 -15 -154 4 -170 15 -12 14
-15 -6 -31 -12 -10 -31 -18 -41 -18 -16 0 -18 9 -17 92 0 51 -5 112 -11 135
-6 24 -11 64 -10 90 2 27 -5 95 -15 153 -10 58 -20 127 -23 153 l-6 48 39 -6
c52 -10 64 -23 73 -81 l9 -49 1 40 c1 65 -16 88 -78 102 l-54 11 7 -76 c4 -42
11 -104 16 -137 13 -82 31 -259 39 -380 7 -114 16 -124 81 -84 l34 21 -23 20
-24 19 13 112 c8 76 9 136 3 187 -6 52 -5 95 4 140 17 94 16 163 -8 307 -20
123 -19 205 1 218 4 3 16 -27 25 -67 9 -40 27 -92 41 -115 27 -47 39 -56 28
-20 -3 12 -3 19 1 15 4 -4 9 -24 11 -45 5 -65 27 -163 37 -163 5 0 6 7 3 16
-3 8 -2 12 4 9 6 -3 10 1 10 10 0 9 -4 13 -10 10 -5 -3 -12 7 -16 22 -3 15 -8
36 -10 45 -11 41 74 23 90 -19 5 -13 4 -13 -8 -4 -11 10 -13 3 -11 -44 2 -30
2 -55 0 -55 -3 0 -9 15 -15 33 -8 28 -9 28 -6 5 2 -16 -1 -28 -5 -28 -5 0 -9
-4 -9 -9 0 -14 43 -9 58 6 11 10 11 21 4 43 -9 24 -8 29 6 32 13 2 9 11 -19
43 -36 40 -52 76 -64 150 -4 22 -13 54 -21 70 -18 38 -35 117 -39 177 -4 68
-25 94 -105 130 -75 33 -84 48 -54 93 11 17 14 36 9 67 -7 48 -20 69 -52 86
-31 17 -49 15 -78 -10z m89 -11 c10 -7 22 -33 26 -58 8 -37 6 -48 -12 -73 -30
-42 -13 -70 68 -108 72 -34 97 -62 92 -105 l-3 -28 -37 38 c-23 22 -36 44 -33
55 3 16 -2 19 -33 17 -21 -1 -40 -3 -44 -4 -13 -2 -17 -37 -9 -75 7 -30 5 -48
-10 -83 -11 -25 -17 -48 -15 -51 3 -2 12 13 21 34 14 36 18 39 55 39 46 0 49
-8 25 -75 -8 -23 -15 -67 -15 -96 0 -77 -21 -72 -69 18 l-30 57 2 180 c1 98 5
177 9 174 5 -2 8 1 8 6 0 6 -6 11 -13 11 -11 0 -14 -41 -15 -190 -2 -187 -2
-190 23 -230 14 -22 25 -46 25 -54 0 -8 8 -19 18 -25 15 -9 14 -11 -9 -20 -15
-5 -36 -22 -48 -37 -21 -26 -22 -27 -36 -8 -8 10 -15 22 -15 25 0 3 -11 11
-24 17 l-25 11 35 66 35 66 -2 163 c-1 90 1 168 5 174 9 15 -4 42 -20 42 -8 0
-14 -5 -14 -11 0 -5 4 -8 8 -5 4 2 8 -73 9 -167 1 -166 1 -171 -15 -137 -9 20
-16 63 -17 100 -1 80 -8 94 -47 86 -18 -3 -27 -2 -23 4 3 6 -1 7 -10 4 -23 -9
-9 -18 27 -19 35 0 55 -23 43 -51 -6 -16 -9 -14 -17 14 -5 17 -13 32 -18 32
-10 0 -82 -60 -108 -90 -11 -13 -13 -8 -9 28 5 40 29 82 48 82 5 0 33 12 64
26 61 29 79 61 53 92 -20 23 -30 52 -18 52 6 0 10 18 10 40 0 27 6 42 18 49
24 14 65 13 86 -2z m81 -278 c17 -8 15 -8 -7 -4 -23 4 -29 1 -34 -19 -3 -14
-4 -31 -1 -38 3 -7 6 -1 6 14 1 15 5 29 9 32 14 9 54 -25 48 -41 -3 -8 -1 -11
4 -8 16 10 12 -31 -4 -45 -8 -6 -25 -10 -38 -8 -19 2 -25 12 -32 49 -14 72 0
91 49 68z m-212 -70 c2 -37 -1 -44 -18 -47 -49 -6 -66 43 -29 83 31 34 44 24
47 -36z m321 -94 c5 -30 4 -35 -4 -20 -7 15 -8 10 -3 -20 10 -61 4 -99 -13
-82 -9 9 -10 126 0 120 5 -3 7 0 5 6 -3 7 -9 12 -14 12 -6 -1 -8 -26 -6 -57 4
-66 -10 -66 -29 0 -8 28 -10 63 -5 92 l7 47 28 -29 c18 -18 31 -44 34 -69z
m-392 38 c2 -27 -1 -61 -8 -78 -22 -53 -27 -70 -26 -85 2 -20 -43 -106 -53
-102 -11 5 -27 -26 -20 -38 3 -6 -5 -10 -18 -10 -24 0 -24 1 -11 38 7 20 13
49 14 63 0 15 6 42 14 60 l14 34 13 -28 c10 -21 10 -38 2 -68 -6 -23 -7 -37
-3 -32 13 13 29 82 20 88 -13 8 -20 88 -11 128 10 41 36 77 57 77 7 0 14 -19
16 -47z m111 -50 l27 -53 -22 -38 c-13 -21 -28 -47 -34 -57 -6 -11 -18 -21
-27 -23 -14 -3 -17 6 -15 55 0 32 -6 80 -16 106 -9 26 -16 51 -16 55 0 4 17 7
37 7 36 0 40 -3 66 -52z m333 -164 c7 -37 17 -74 20 -83 4 -10 1 -16 -9 -16
-21 0 -59 85 -58 128 1 17 1 49 2 70 l0 37 16 -35 c8 -19 21 -65 29 -101z
m-60 4 c7 -20 11 -39 9 -41 -5 -5 -30 45 -40 78 -12 41 16 8 31 -37z m-266
-63 c20 -22 29 -43 32 -76 4 -59 -7 -74 -60 -81 -50 -7 -61 -22 -72 -97 -7
-45 -8 -39 -9 45 -1 82 10 185 24 227 8 23 56 13 85 -18z m-313 -105 c0 -8 -4
-12 -9 -9 -5 3 -6 10 -3 15 9 13 12 11 12 -6z m-5 -67 c-8 -8 -9 -4 -5 13 4
13 8 18 11 10 2 -7 -1 -18 -6 -23z m728 -3 c0 -5 -5 -3 -10 5 -5 8 -10 20 -10
25 0 6 5 3 10 -5 5 -8 10 -19 10 -25z m-394 -76 c-8 -52 -17 -112 -21 -134
-10 -62 -25 -229 -32 -343 -6 -111 -12 -120 -62 -86 l-22 16 21 21 c24 22 24
21 1 176 -7 42 -6 82 0 119 6 31 9 76 7 101 -6 56 10 181 24 199 6 6 22 12 37
12 14 0 33 4 41 10 8 5 16 7 18 5 2 -1 -3 -45 -12 -96z"/>
<path d="M5185 1099 c-5 -8 -4 -10 3 -5 8 5 10 -9 7 -46 l-4 -53 11 48 c7 33
7 52 0 59 -6 6 -12 6 -17 -3z"/>
<path d="M5172 1060 c0 -14 2 -19 5 -12 2 6 2 18 0 25 -3 6 -5 1 -5 -13z"/>
<path d="M5317 445 c9 -19 18 -33 21 -31 4 5 -26 66 -33 66 -3 0 3 -16 12 -35z"/>
<path d="M2841 719 c-26 -59 -33 -135 -22 -249 l8 -95 2 145 c1 121 5 152 21
189 11 24 18 46 15 49 -2 3 -13 -15 -24 -39z"/>
<path d="M5077 713 c-4 -3 -7 -14 -7 -24 0 -10 -7 -22 -17 -27 -13 -8 -12 -9
8 -9 22 0 25 4 25 33 0 37 0 37 -9 27z"/>
<path d="M5096 705 c-3 -10 -2 -23 4 -29 15 -15 24 1 13 26 -9 20 -10 20 -17
3z"/>
<path d="M3220 340 c-6 -11 -8 -20 -6 -20 3 0 10 9 16 20 6 11 8 20 6 20 -3 0
-10 -9 -16 -20z"/>
</g>
</svg>
